<?xml version="1.0" encoding="UTF-8" standalone="no"?>
<svg width="60px" height="60px" viewBox="0 0 60 60" version="1.1" xmlns="http://www.w3.org/2000/svg" xmlns:xlink="http://www.w3.org/1999/xlink" xmlns:sketch="http://www.bohemiancoding.com/sketch/ns">
    <!-- Generator: Sketch 3.2.2 (9983) - http://www.bohemiancoding.com/sketch -->
    <title>Wavesun</title>
    <desc>Created with Sketch.</desc>
    <defs></defs>
    <g id="stroked" stroke="none" stroke-width="1" fill="none" fill-rule="evenodd" sketch:type="MSPage">
        <g id="Weather" sketch:type="MSLayerGroup" transform="translate(-246.000000, -836.000000)" stroke="#000000" stroke-width="2" stroke-linejoin="round">
            <g id="Wavesun" transform="translate(249.000000, 839.000000)" sketch:type="MSShapeGroup">
                <path d="M50.6283176,42.7310055 C48.9360854,41.8172309 46.9705288,41.2941176 44.8738232,41.2941176 C42.6639486,41.2941176 40.5997627,41.8752245 38.8477271,42.8823609 C41.6308418,36.8415307 46.7094023,32.0249888 53,29.4895847 L53,29.4895847 C49.0751443,27.2704179 44.5163573,26 39.6533916,26 C24.9331299,26 13,37.6405965 13,52 L34.9725258,52 L34.9725258,52 L43.5413966,52 C43.8025079,47.8064724 46.6545244,44.2605897 50.6283176,42.7310055 Z" id="Oval-1291" stroke-linecap="round"></path>
                <path d="M50,52 L1.98958445,52" id="Line" stroke-linecap="square"></path>
                <circle id="Oval-1130" stroke-linecap="round" cx="8" cy="10" r="8"></circle>
                <path d="M19,10 L23,10" id="Line-304" stroke-linecap="round"></path>
                <path d="M8,25 L8,21" id="Line-305" stroke-linecap="round"></path>
                <path d="M16,18 L18.8284271,20.8284271" id="Line-306" stroke-linecap="round"></path>
                <path d="M16,2.82842712 L18.8284271,0" id="Line-307" stroke-linecap="round"></path>
            </g>
        </g>
    </g>
</svg>